PathFileType	4	(X/Y/Z)	Walk7.trc
DataRate	CameraRate	NumFrames	NumMarkers	Units	OrigDataRate	OrigDataStartFrame	OrigNumFrames
200.000000	200.000000	8	59	mm	200.000000	286	590
Frame#	Times		LFHD		RFHD		CLAV		STRN		LASI		RASI		RACR1		RUA1		RElbow		RFA1		RWRR		RWRU		RCAR		LACR1		LUA1		LElbow		LFA1		LWRR		LCAR		RTH3		RTH2		RTB1		RTB2		RTB4		LTH1		LTH3		LTH2		LTH4		LLFC		LTB1		LTB2		LTB4		LMT1		LToe		LWRU		LMT5		LTB3		RTB3		LMFC		RMT1		RMMAL		RElbowM		RLFC		RToe		RBHD		RTH4		RTH1		RCAL		RBack		RMFC		RPSI		LLMAL		C7		LPSI		T10		LMMAL		LBHD		LCAL		LElbowM
			X1	Y1	Z1	X2	Y2	Z2	X3	Y3	Z3	X4	Y4	Z4	X5	Y5	Z5	X6	Y6	Z6	X7	Y7	Z7	X8	Y8	Z8	X9	Y9	Z9	X10	Y10	Z10	X11	Y11	Z11	X12	Y12	Z12	X13	Y13	Z13	X14	Y14	Z14	X15	Y15	Z15	X16	Y16	Z16	X17	Y17	Z17	X18	Y18	Z18	X19	Y19	Z19	X20	Y20	Z20	X21	Y21	Z21	X22	Y22	Z22	X23	Y23	Z23	X24	Y24	Z24	X25	Y25	Z25	X26	Y26	Z26	X27	Y27	Z27	X28	Y28	Z28	X29	Y29	Z29	X30	Y30	Z30	X31	Y31	Z31	X32	Y32	Z32	X33	Y33	Z33	X34	Y34	Z34	X35	Y35	Z35	X36	Y36	Z36	X37	Y37	Z37	X38	Y38	Z38	X39	Y39	Z39	X40	Y40	Z40	X41	Y41	Z41	X42	Y42	Z42	X43	Y43	Z43	X44	Y44	Z44	X45	Y45	Z45	X46	Y46	Z46	X47	Y47	Z47	X48	Y48	Z48	X49	Y49	Z49	X50	Y50	Z50	X51	Y51	Z51	X52	Y52	Z52	X53	Y53	Z53	X54	Y54	Z54	X55	Y55	Z55	X56	Y56	Z56	X57	Y57	Z57	X58	Y58	Z58	X59	Y59	Z59

286	1.43	-250.01	1658.3	5.2933	-241.61	1646.2	-92.986	-243.15	1396.9	-14.689	-172.15	1242.2	0.33257	-272.5	974.16	-179.25	-296.73	983.83	179.26	-376.28	1489.4	139.34	-403.5	1328.8	265.5	-386.2	1187.7	327.83	-313	1057.1	343.49	-250.41	955.62	273.54	-263.11	955.13	354.73	-202.1	888.03	323.06	-343.42	1448.6	-207.3	-379.35	1273.4	-286.79	-401.32	1109.9	-330.29	-377.14	971	-340.24	-319.49	851.01	-281.38	-307.18	766.1	-316.46	-353.36	592.85	222	-311.61	688.46	210.57	-404.01	363.33	143.88	-493.48	332.09	190.09	-478.72	319.5	132.19	-292.84	756.73	-198.47	-246.4	594.93	-167.08	-215.9	694.78	-166.24	-270.99	676.41	-182.43	-247.04	510.46	-162.48	-174.53	394.1	-92.016	-208.4	301.64	-126.69	-181.88	312.31	-71.268	-132.56	36.7	-36.146	-81.689	31.997	-73.369	-367.59	832.24	-335.03	-198.12	26.191	-115.1	-197.08	227.82	-53.425	-551.92	275.44	120.06	-231.47	511.21	-5.4903	-670.94	85.871	78.21	-681.51	228.47	56.439	-415.02	1105.3	228.87	-374.71	490.86	218.17	-648.64	49.066	118.25	-389.44	1565.1	-109.32	-367.71	677.49	222.01	-383.96	762.75	221.93	-764.09	283.06	87.36	-512.98	1364.1	82.277	-355.57	479.74	62.75	-545.66	1015.2	12.912	-294.05	73.855	-53.138	-438	1473.8	-36.948	-527.28	1024.4	-70.504	-500.98	1158	-19.58	-268	84.186	32.654	-388.11	1588	38.373	-344.78	47.528	4.1541	-459.89	1056.7	-231.89
287	1.435	-243.66	1659.3	5.2947	-235.34	1647.3	-92.994	-237.04	1398	-14.834	-166.01	1243.3	-0.12253	-266.91	975.22	-180.11	-290.48	985.16	179.35	-370.13	1490.4	139.27	-397.63	1329.7	265.22	-380.51	1188.4	327.36	-308.45	1057	343.31	-246.8	954.73	273.63	-259.58	954.52	354.79	-199.16	886.83	323.33	-337.34	1450	-207.43	-372.18	1274.6	-287.09	-392.98	1111	-330.77	-367.34	972.41	-340.8	-308.03	853.18	-282.21	-294.44	768.75	-317.62	-341.29	594.82	222.26	-300.84	690.97	210.59	-389.8	365.27	144.44	-479.08	333.59	190.73	-464.27	321.04	132.83	-288.5	757.09	-198.79	-243.35	594.92	-167.28	-212.03	694.5	-166.48	-267.28	676.64	-182.7	-244.65	510.4	-162.59	-172.85	393.6	-92.09	-207.13	301.29	-126.75	-180.61	311.87	-71.309	-132.52	36.705	-36.207	-81.539	31.662	-73.56	-356.13	833.81	-335.6	-198.14	26.167	-115.15	-196.21	227.46	-53.435	-537.22	276.6	120.78	-229.34	511	-5.6325	-653.98	86.679	80.056	-666.57	228.81	57.255	-410.12	1106.1	228.35	-361.3	492.86	218.63	-631.24	50.642	120.06	-383.28	1566.5	-109.29	-356.78	679.26	222.13	-374.21	764.29	221.88	-749.95	282.54	88.023	-506.82	1365.1	81.959	-342.54	481.54	63.162	-539.29	1016.2	12.729	-293.89	73.935	-53.099	-431.9	1475	-37.003	-521.34	1025.6	-70.63	-494.79	1159.1	-19.895	-267.84	84.165	32.694	-381.75	1589.2	38.463	-344.72	47.661	4.1917	-450.93	1057.2	-232.32
288	1.44	-237.35	1660.3	5.326	-229.1	1648.4	-92.975	-230.95	1399.2	-14.961	-159.89	1244.4	-0.55678	-261.34	976.28	-180.96	-284.26	986.47	179.54	-364.01	1491.3	139.23	-391.77	1330.6	264.97	-374.85	1189	326.9	-303.94	1056.9	343.15	-243.22	953.83	273.76	-256.11	953.91	354.89	-196.28	885.63	323.65	-331.31	1451.4	-207.55	-365.07	1275.8	-287.4	-384.66	1112.2	-331.26	-357.54	973.85	-341.37	-296.57	855.41	-283.02	-281.72	771.47	-318.73	-329.3	596.87	222.49	-290.17	693.54	210.6	-375.57	367.2	145.01	-464.63	335.02	191.35	-449.74	322.48	133.48	-284.21	757.43	-199.1	-240.35	594.92	-167.47	-208.2	694.22	-166.73	-263.63	676.86	-182.96	-242.31	510.33	-162.69	-171.21	393.12	-92.168	-205.91	300.95	-126.82	-179.36	311.44	-71.354	-132.48	36.709	-36.271	-81.386	31.319	-73.759	-344.66	835.43	-336.16	-198.16	26.142	-115.21	-195.37	227.11	-53.453	-522.37	277.56	121.51	-227.24	510.81	-5.7636	-636.58	87.193	81.814	-651.4	228.78	58.019	-405.17	1106.9	227.87	-348.01	494.92	219.04	-613.31	52.027	121.77	-377.16	1567.8	-109.23	-345.93	681.09	222.23	-364.53	765.89	221.83	-735.64	281.54	88.625	-500.68	1366.1	81.656	-329.55	483.4	63.536	-532.93	1017.2	12.569	-293.73	74.02	-53.065	-425.83	1476.1	-37.032	-515.4	1026.7	-70.732	-488.62	1160.2	-20.205	-267.68	84.15	32.726	-375.43	1590.4	38.582	-344.66	47.801	4.2271	-442.01	1057.7	-232.78
289	1.445	-231.08	1661.3	5.3849	-222.9	1649.6	-92.929	-224.9	1400.3	-15.072	-153.79	1245.5	-0.96976	-255.79	977.35	-181.81	-278.07	987.76	179.83	-357.92	1492.3	139.21	-385.9	1331.5	264.74	-369.2	1189.6	326.45	-299.48	1056.7	343.02	-239.69	952.92	273.94	-252.7	953.29	355.03	-193.44	884.43	324.03	-325.32	1452.7	-207.65	-358.01	1277	-287.71	-376.35	1113.3	-331.76	-347.73	975.34	-341.94	-285.13	857.72	-283.81	-269.03	774.25	-319.8	-317.42	598.99	222.68	-279.58	696.17	210.62	-361.32	369.12	145.58	-450.15	336.37	191.95	-435.14	323.81	134.13	-279.96	757.77	-199.41	-237.41	594.91	-167.66	-204.43	693.93	-166.98	-260.03	677.09	-183.22	-240.01	510.27	-162.8	-169.61	392.66	-92.249	-204.72	300.62	-126.88	-178.15	311.02	-71.404	-132.44	36.712	-36.338	-81.229	30.969	-73.966	-333.18	837.11	-336.73	-198.18	26.116	-115.26	-194.54	226.78	-53.477	-507.37	278.31	122.23	-225.17	510.62	-5.8852	-618.75	87.423	83.489	-635.99	228.39	58.736	-400.19	1107.6	227.44	-334.83	497.03	219.4	-594.89	53.217	123.38	-371.08	1569.1	-109.14	-335.16	682.98	222.32	-354.92	767.53	221.78	-721.17	280.03	89.178	-494.57	1367	81.369	-316.6	485.34	63.869	-526.59	1018.2	12.438	-293.57	74.111	-53.037	-419.79	1477.2	-37.036	-509.48	1027.9	-70.808	-482.47	1161.3	-20.511	-267.52	84.144	32.751	-369.14	1591.5	38.725	-344.59	47.951	4.2609	-433.13	1058.2	-233.27
290	1.45	-224.84	1662.3	5.4691	-216.73	1650.7	-92.859	-218.87	1401.5	-15.167	-147.7	1246.6	-1.3617	-250.26	978.43	-182.65	-271.9	989.02	180.2	-351.86	1493.2	139.21	-380.02	1332.3	264.53	-363.58	1190.2	326.01	-295.06	1056.5	342.91	-236.2	952.01	274.15	-249.33	952.66	355.2	-190.66	883.24	324.45	-319.38	1454.1	-207.73	-351	1278.2	-288.02	-368.06	1114.5	-332.29	-337.91	976.86	-342.52	-273.7	860.08	-284.57	-256.38	777.09	-320.81	-305.64	601.18	222.83	-269.09	698.83	210.64	-347.08	371.02	146.14	-435.65	337.63	192.52	-420.47	325.02	134.76	-275.74	758.08	-199.71	-234.5	594.9	-167.85	-200.7	693.64	-167.23	-256.47	677.32	-183.49	-237.77	510.21	-162.9	-168.04	392.2	-92.334	-203.55	300.3	-126.95	-176.96	310.62	-71.459	-132.4	36.715	-36.409	-81.066	30.613	-74.181	-321.67	838.85	-337.29	-198.2	26.09	-115.31	-193.73	226.46	-53.509	-492.24	278.86	122.95	-223.11	510.44	-5.9991	-600.51	87.377	85.083	-620.35	227.64	59.412	-395.16	1108.3	227.04	-321.78	499.18	219.7	-576	54.211	124.91	-365.02	1570.4	-109.03	-324.49	684.91	222.38	-345.38	769.21	221.72	-706.53	278.04	89.695	-488.49	1368	81.098	-303.71	487.33	64.16	-520.26	1019.2	12.339	-293.42	74.206	-53.013	-413.78	1478.3	-37.017	-503.56	1029	-70.861	-476.33	1162.4	-20.811	-267.36	84.147	32.768	-362.88	1592.6	38.89	-344.52	48.111	4.2939	-424.28	1058.7	-233.79
291	1.455	-218.64	1663.3	5.5763	-210.6	1651.8	-92.766	-212.86	1402.6	-15.249	-141.62	1247.7	-1.7335	-244.73	979.49	-183.48	-265.75	990.25	180.64	-345.83	1494.1	139.22	-374.13	1333	264.33	-357.99	1190.8	325.58	-290.68	1056.3	342.84	-232.75	951.11	274.39	-246.02	952.04	355.4	-187.92	882.05	324.91	-313.48	1455.5	-207.8	-344.04	1279.4	-288.33	-359.79	1115.6	-332.83	-328.08	978.4	-343.11	-262.3	862.51	-285.32	-243.75	779.99	-321.77	-293.98	603.41	222.94	-258.7	701.51	210.65	-332.84	372.9	146.67	-421.13	338.79	193.05	-405.75	326.13	135.38	-271.56	758.39	-200	-231.63	594.89	-168.03	-197	693.34	-167.48	-252.95	677.54	-183.75	-235.55	510.15	-163	-166.5	391.76	-92.423	-202.42	299.99	-127.02	-175.79	310.23	-71.519	-132.36	36.718	-36.484	-80.897	30.251	-74.402	-310.16	840.63	-337.86	-198.22	26.063	-115.37	-192.92	226.15	-53.546	-476.99	279.21	123.65	-221.07	510.26	-6.1073	-581.89	87.066	86.603	-604.51	226.53	60.053	-390.1	1109.1	226.68	-308.87	501.36	219.95	-556.67	55.011	126.35	-359	1571.7	-108.89	-313.92	686.88	222.43	-335.93	770.92	221.67	-691.71	275.58	90.185	-482.42	1368.9	80.843	-290.88	489.39	64.408	-513.94	1020.1	12.278	-293.26	74.308	-52.995	-407.78	1479.3	-36.978	-497.66	1030.1	-70.889	-470.2	1163.4	-21.102	-267.19	84.161	32.781	-356.65	1593.7	39.072	-344.45	48.284	4.3273	-415.47	1059.3	-234.35
292	1.46	-212.48	1664.2	5.7044	-204.51	1652.9	-92.651	-206.88	1403.7	-15.319	-135.55	1248.8	-2.0863	-239.22	980.55	-184.29	-259.61	991.42	181.13	-339.81	1495	139.26	-368.24	1333.8	264.16	-352.41	1191.3	325.17	-286.35	1056.2	342.79	-229.35	950.2	274.68	-242.76	951.42	355.64	-185.24	880.87	325.42	-307.62	1456.8	-207.86	-337.13	1280.7	-288.65	-351.52	1116.8	-333.4	-318.25	979.98	-343.7	-250.92	864.98	-286.03	-231.17	782.92	-322.66	-282.44	605.67	223.02	-248.43	704.21	210.66	-318.62	374.75	147.18	-406.6	339.85	193.55	-390.98	327.12	135.97	-267.4	758.68	-200.29	-228.79	594.87	-168.21	-193.35	693.04	-167.73	-249.47	677.76	-184.01	-233.37	510.1	-163.1	-164.98	391.33	-92.516	-201.3	299.7	-127.09	-174.64	309.85	-71.585	-132.31	36.721	-36.561	-80.722	29.886	-74.629	-298.63	842.47	-338.42	-198.24	26.036	-115.43	-192.13	225.86	-53.59	-461.62	279.36	124.33	-219.04	510.08	-6.2113	-562.91	86.503	88.053	-588.45	225.09	60.663	-385.02	1109.8	226.35	-296.1	503.55	220.15	-536.94	55.622	127.72	-353	1573	-108.74	-303.45	688.86	222.47	-326.57	772.64	221.62	-676.72	272.66	90.661	-476.37	1369.8	80.607	-278.13	491.52	64.612	-507.64	1021	12.258	-293.11	74.415	-52.981	-401.81	1480.4	-36.92	-491.76	1031.2	-70.894	-464.09	1164.4	-21.382	-267.02	84.187	32.79	-350.46	1594.8	39.268	-344.37	48.47	4.3619	-406.7	1059.8	-234.95
293	1.465	-206.36	1665.1	5.8515	-198.45	1654	-92.514	-200.92	1404.8	-15.379	-129.49	1249.9	-2.4216	-233.71	981.59	-185.07	-253.47	992.55	181.67	-333.81	1495.8	139.31	-362.35	1334.5	264.01	-346.87	1191.8	324.77	-282.07	1056	342.78	-225.98	949.3	274.99	-239.55	950.8	355.91	-182.6	879.7	325.96	-301.79	1458.1	-207.9	-330.28	1281.8	-288.97	-343.26	1117.9	-333.98	-308.4	981.57	-344.29	-239.56	867.49	-286.72	-218.62	785.88	-323.5	-271.04	607.96	223.05	-238.28	706.91	210.66	-304.43	376.58	147.66	-392.05	340.8	194.02	-376.17	328.01	136.53	-263.27	758.96	-200.56	-225.98	594.86	-168.38	-189.72	692.73	-167.97	-246.01	677.98	-184.28	-231.21	510.05	-163.2	-163.47	390.91	-92.612	-200.19	299.41	-127.16	-173.5	309.47	-71.655	-132.27	36.726	-36.642	-80.541	29.52	-74.858	-287.08	844.34	-338.98	-198.26	26.009	-115.48	-191.34	225.57	-53.64	-446.15	279.34	124.98	-217	509.91	-6.3122	-543.6	85.702	89.438	-572.2	223.32	61.249	-379.94	1110.5	226.05	-283.47	505.75	220.29	-516.83	56.051	129.03	-347.03	1574.2	-108.56	-293.11	690.86	222.49	-317.3	774.36	221.56	-661.55	269.28	91.129	-470.34	1370.6	80.388	-265.46	493.7	64.773	-501.36	1021.9	12.283	-292.95	74.53	-52.971	-395.85	1481.4	-36.846	-485.87	1032.3	-70.874	-457.99	1165.4	-21.647	-266.83	84.225	32.798	-344.31	1595.8	39.475	-344.3	48.672	4.3986	-397.96	1060.3	-235.59
